<svg xmlns="http://www.w3.org/2000/svg" viewBox="0 0 100 100" preserveAspectRatio="xMidYMid" width="205" height="205" style="shape-rendering: auto; display: block; background: rgba(255, 52, 52, 0);" xmlns:xlink="http://www.w3.org/1999/xlink"><g><g transform="rotate(0 50 50)">
  <rect fill="#ffffff" height="19" width="10" ry="1.33" rx="1.33" y="11.5" x="45">
    <animate repeatCount="indefinite" begin="-0.8080808080808081s" dur="0.9090909090909091s" keyTimes="0;1" values="1;0" attributeName="opacity"></animate>
  </rect>
</g><g transform="rotate(40 50 50)">
  <rect fill="#ffffff" height="19" width="10" ry="1.33" rx="1.33" y="11.5" x="45">
    <animate repeatCount="indefinite" begin="-0.7070707070707071s" dur="0.9090909090909091s" keyTimes="0;1" values="1;0" attributeName="opacity"></animate>
  </rect>
</g><g transform="rotate(80 50 50)">
  <rect fill="#ffffff" height="19" width="10" ry="1.33" rx="1.33" y="11.5" x="45">
    <animate repeatCount="indefinite" begin="-0.6060606060606061s" dur="0.9090909090909091s" keyTimes="0;1" values="1;0" attributeName="opacity"></animate>
  </rect>
</g><g transform="rotate(120 50 50)">
  <rect fill="#ffffff" height="19" width="10" ry="1.33" rx="1.33" y="11.5" x="45">
    <animate repeatCount="indefinite" begin="-0.5050505050505051s" dur="0.9090909090909091s" keyTimes="0;1" values="1;0" attributeName="opacity"></animate>
  </rect>
</g><g transform="rotate(160 50 50)">
  <rect fill="#ffffff" height="19" width="10" ry="1.33" rx="1.33" y="11.5" x="45">
    <animate repeatCount="indefinite" begin="-0.40404040404040403s" dur="0.9090909090909091s" keyTimes="0;1" values="1;0" attributeName="opacity"></animate>
  </rect>
</g><g transform="rotate(200 50 50)">
  <rect fill="#ffffff" height="19" width="10" ry="1.33" rx="1.33" y="11.5" x="45">
    <animate repeatCount="indefinite" begin="-0.30303030303030304s" dur="0.9090909090909091s" keyTimes="0;1" values="1;0" attributeName="opacity"></animate>
  </rect>
</g><g transform="rotate(240 50 50)">
  <rect fill="#ffffff" height="19" width="10" ry="1.33" rx="1.33" y="11.5" x="45">
    <animate repeatCount="indefinite" begin="-0.20202020202020202s" dur="0.9090909090909091s" keyTimes="0;1" values="1;0" attributeName="opacity"></animate>
  </rect>
</g><g transform="rotate(280 50 50)">
  <rect fill="#ffffff" height="19" width="10" ry="1.33" rx="1.33" y="11.5" x="45">
    <animate repeatCount="indefinite" begin="-0.10101010101010101s" dur="0.9090909090909091s" keyTimes="0;1" values="1;0" attributeName="opacity"></animate>
  </rect>
</g><g transform="rotate(320 50 50)">
  <rect fill="#ffffff" height="19" width="10" ry="1.33" rx="1.33" y="11.5" x="45">
    <animate repeatCount="indefinite" begin="0s" dur="0.9090909090909091s" keyTimes="0;1" values="1;0" attributeName="opacity"></animate>
  </rect>
</g><g></g></g><!-- [ldio] generated by https://loading.io --></svg>